<svg width="778.8799560546875px" height="178.41875px" xmlns="http://www.w3.org/2000/svg" viewBox="-139.43997802734373 -14.209374999999994 778.8799560546875 178.41875" style="background: rgba(0, 0, 0, 0);" preserveAspectRatio="xMidYMid"><defs><linearGradient id="editing-gradow-gradient" x1="0" x2="1" y1="0.5" y2="0.5" gradientUnits="objectBoundingBox"><stop offset="0" stop-color="#f0f"></stop><stop offset="1" stop-color="#0ff"></stop></linearGradient><filter id="editing-gradow-filter" x="-100%" y="-100%" width="300%" height="300%"><feFlood flood-color="#fffcd9" result="flood"></feFlood><feComposite operator="in" in2="SourceAlpha" in="flood" result="shadow"></feComposite><feOffset dx="-4" dy="-4" in="SourceGraphic" result="offset-1"></feOffset><feOffset dx="4" dy="4" in="shadow" result="offset-2"></feOffset><feMerge><feMergeNode in="offset-2"></feMergeNode><feMergeNode in="offset-1"></feMergeNode></feMerge></filter></defs><g filter="url(#editing-gradow-filter)"><g transform="translate(-30.09999394416809, 112.3515625)"><path d="M3.20-24.40L3.20-24.40L3.20-24.40Q3.20-43.30 13-55.20L13-55.20L13-55.20Q23.40-68.10 41.50-68.10L41.50-68.10L41.50-68.10Q54.60-68.10 61.20-61.75L61.20-61.75L61.20-61.75Q67.80-55.40 67.80-42L67.80-42L67.80-42Q67.80-21.60 57.40-9.70L57.40-9.70L57.40-9.70Q47.10 2 29.80 2L29.80 2L29.80 2Q16.30 2 9.75-4.75L9.75-4.75L9.75-4.75Q3.20-11.50 3.20-24.40ZM29.50-45.10L29.50-45.10L29.50-45.10Q25-27.10 25-12.90L25-12.90L25-12.90Q25-9.50 26.15-7.30L26.15-7.30L26.15-7.30Q27.30-5.10 30.35-5.10L30.35-5.10L30.35-5.10Q33.40-5.10 35.30-6.55L35.30-6.55L35.30-6.55Q37.20-8 38.70-11.30L38.70-11.30L38.70-11.30Q41.10-16.70 43.35-28.15L43.35-28.15L43.35-28.15Q45.60-39.60 45.80-44.35L45.80-44.35L45.80-44.35Q46-49.10 46-52.70L46-52.70L46-52.70Q46-56.30 44.90-58.60L44.90-58.60L44.90-58.60Q43.80-60.90 40.85-60.90L40.85-60.90L40.85-60.90Q37.90-60.90 35.90-59.10L35.90-59.10L35.90-59.10Q32.20-55.70 29.50-45.10ZM121.80-41.60L121.80-41.60L121.80-41.60Q121.80-37.40 118.30-34.80L118.30-34.80L118.30-34.80Q114.80-32.20 109.10-32.20L109.10-32.20L109.10-32.20Q106.70-32.20 105.30-32.90L105.30-32.90L105.30-32.90Q106.40-35.50 106.75-38.75L106.75-38.75L106.75-38.75Q107.10-42 107.10-42.90L107.10-42.90L107.10-42.90Q107.10-47.10 104.20-47.10L104.20-47.10L104.20-47.10Q102.20-47.10 99.95-44.60L99.95-44.60L99.95-44.60Q97.70-42.10 95.80-38.20L95.80-38.20L95.80-38.20Q91.60-29.20 91.60-20.10L91.60-20.10L91.60-20.10Q91.60-15.10 93.50-12.85L93.50-12.85L93.50-12.85Q95.40-10.60 99.60-10.60L99.60-10.60L99.60-10.60Q105.40-10.60 110-15.40L110-15.40L110-15.40Q111.30-16.90 112-18.60L112-18.60L112-18.60Q115.80-16.60 115.80-11.10L115.80-11.10L115.80-11.10Q115.80-5.50 109.60-1.80L109.60-1.80L109.60-1.80Q103.20 2 93 2L93 2L93 2Q72.70 2 72.70-19.50L72.70-19.50L72.70-19.50Q72.70-35.20 81.60-44.20L81.60-44.20L81.60-44.20Q90.20-53 106-53L106-53L106-53Q121.80-53 121.80-41.60ZM165-16.90L165-16.90L165-16.90Q167.50-15.20 167.50-11.45L167.50-11.45L167.50-11.45Q167.50-7.70 165.60-5.30L165.60-5.30L165.60-5.30Q163.70-2.90 160.60-1.30L160.60-1.30L160.60-1.30Q154.20 2 147.30 2L147.30 2L147.30 2Q140.40 2 136.35 0.50L136.35 0.50L136.35 0.50Q132.30-1 129.60-3.80L129.60-3.80L129.60-3.80Q124.30-9.10 124.30-18.80L124.30-18.80L124.30-18.80Q124.30-33.90 132.50-43.10L132.50-43.10L132.50-43.10Q141.30-53 156.60-53L156.60-53L156.60-53Q166.10-53 170.80-49L170.80-49L170.80-49Q174.30-46 174.30-41.10L174.30-41.10L174.30-41.10Q174.30-23.50 143.90-23.50L143.90-23.50L143.90-23.50Q143.50-20.90 143.50-18.70L143.50-18.70L143.50-18.70Q143.50-14.10 145.55-12.35L145.55-12.35L145.55-12.35Q147.60-10.60 151.40-10.60L151.40-10.60L151.40-10.60Q155.20-10.60 159.25-12.35L159.25-12.35L159.25-12.35Q163.30-14.10 165-16.90ZM144.60-27.80L144.60-27.80L144.60-27.80Q151.70-27.80 155.80-32.20L155.80-32.20L155.80-32.20Q159.90-36.40 159.90-43.10L159.90-43.10L159.90-43.10Q159.90-45.40 159.05-46.65L159.05-46.65L159.05-46.65Q158.20-47.90 156.50-47.90L156.50-47.90L156.50-47.90Q154.80-47.90 153.35-47.25L153.35-47.25L153.35-47.25Q151.90-46.60 150.40-44.40L150.40-44.40L150.40-44.40Q146.70-39.40 144.60-27.80ZM182.05-3L182.05-3L182.05-3Q179.70-5.60 178.65-9.70L178.65-9.70L178.65-9.70Q177.60-13.80 177.60-20.50L177.60-20.50L177.60-20.50Q177.60-27.20 179.90-33.30L179.90-33.30L179.90-33.30Q182.20-39.40 186.40-43.80L186.40-43.80L186.40-43.80Q195-53 209.20-53L209.20-53L209.20-53Q214.30-53 218-51.30L218-51.30L235.10-53L227.70-14L227.70-14Q227.40-12.80 227.40-10.60L227.40-10.60L227.40-10.60Q227.40-8.40 228.75-7L228.75-7L228.75-7Q230.10-5.60 232.10-5.40L232.10-5.40L232.10-5.40Q231.10-2 227.45 0L227.45 0L227.45 0Q223.80 2 219.70 2L219.70 2L219.70 2Q215.60 2 212.85 0.45L212.85 0.45L212.85 0.45Q210.10-1.10 209.30-3.70L209.30-3.70L209.30-3.70Q207.70-1.20 204.30 0.40L204.30 0.40L204.30 0.40Q200.90 2 196.35 2L196.35 2L196.35 2Q191.80 2 188.10 0.80L188.10 0.80L188.10 0.80Q184.40-0.40 182.05-3ZM203.15-43.60L203.15-43.60L203.15-43.60Q202-41.80 201-38.75L201-38.75L201-38.75Q200-35.70 198.35-27.55L198.35-27.55L198.35-27.55Q196.70-19.40 196.70-13.60L196.70-13.60L196.70-13.60Q196.70-7.80 197.60-6.10L197.60-6.10L197.60-6.10Q198.50-4.40 200.10-4.40L200.10-4.40L200.10-4.40Q203.30-4.40 205.65-7.45L205.65-7.45L205.65-7.45Q208-10.50 208.90-15.90L208.90-15.90L214.20-45.20L214.20-45.20Q212.10-47 209.65-47L209.65-47L209.65-47Q207.20-47 205.75-46.20L205.75-46.20L205.75-46.20Q204.30-45.40 203.15-43.60ZM282.80 2L282.80 2L282.80 2Q270.70 2 270.70-7.40L270.70-7.40L270.70-7.40Q270.80-10 271.60-14.40L271.60-14.40L273.40-23.60L273.40-23.60Q276.10-36.60 276.10-39.50L276.10-39.50L276.10-39.50Q276.10-45.30 272.70-45.30L272.70-45.30L272.70-45.30Q267-45.30 264-30.40L264-30.40L258.10 0L238 2L248.40-51.10L264.80-53L263.20-43.20L263.20-43.20Q267.90-53 282.30-53L282.30-53L282.30-53Q289.30-53 292.25-50.05L292.25-50.05L292.25-50.05Q295.20-47.10 295.20-40.50L295.20-40.50L295.20-40.50Q295.20-34.30 292-19.80L292-19.80L292-19.80Q290.50-13.30 290.50-10.85L290.50-10.85L290.50-10.85Q290.50-8.40 291.85-7L291.85-7L291.85-7Q293.20-5.60 295.20-5.40L295.20-5.40L295.20-5.40Q294.20-2 290.75 0L290.75 0L290.75 0Q287.30 2 282.80 2ZM326.30-62L326.30-62L326.30-62Q329.20-68 337.25-68L337.25-68L337.25-68Q345.30-68 349.05-63.35L349.05-63.35L349.05-63.35Q352.80-58.70 352.80-48L352.80-48L352.80-12.30L377.10-65.90L389-65.90L357.90 0L334.50 0L331.50-48L331.50-48Q331.20-53.30 329.75-56.90L329.75-56.90L329.75-56.90Q328.30-60.50 326.30-62ZM409-5.50L409-5.50L409-5.50Q405.90 2 396 2L396 2L396 2Q390.90 2 387.70-1.50L387.70-1.50L387.70-1.50Q385-4.60 385-7.70L385-7.70L385-7.70Q385-15.80 388.70-31.60L388.70-31.60L392.40-51L412.70-53L406.60-21.40L406.60-21.40Q404.90-14 404.90-11.40L404.90-11.40L404.90-11.40Q404.90-5.70 409-5.50ZM394.20-64.90L394.20-64.90L394.20-64.90Q394.20-68.80 397.45-70.90L397.45-70.90L397.45-70.90Q400.70-73 405.40-73L405.40-73L405.40-73Q410.10-73 412.95-70.90L412.95-70.90L412.95-70.90Q415.80-68.80 415.80-64.90L415.80-64.90L415.80-64.90Q415.80-61 412.65-59L412.65-59L412.65-59Q409.50-57 404.80-57L404.80-57L404.80-57Q400.10-57 397.15-59L397.15-59L397.15-59Q394.20-61 394.20-64.90ZM458-16.90L458-16.90L458-16.90Q460.50-15.20 460.50-11.45L460.50-11.45L460.50-11.45Q460.50-7.70 458.60-5.30L458.60-5.30L458.60-5.30Q456.70-2.90 453.60-1.30L453.60-1.30L453.60-1.30Q447.20 2 440.30 2L440.30 2L440.30 2Q433.40 2 429.35 0.50L429.35 0.50L429.35 0.50Q425.30-1 422.60-3.80L422.60-3.80L422.60-3.80Q417.30-9.10 417.30-18.80L417.30-18.80L417.30-18.80Q417.30-33.90 425.50-43.10L425.50-43.10L425.50-43.10Q434.30-53 449.60-53L449.60-53L449.60-53Q459.10-53 463.80-49L463.80-49L463.80-49Q467.30-46 467.30-41.10L467.30-41.10L467.30-41.10Q467.30-23.50 436.90-23.50L436.90-23.50L436.90-23.50Q436.50-20.90 436.50-18.70L436.50-18.70L436.50-18.70Q436.50-14.10 438.55-12.35L438.55-12.35L438.55-12.35Q440.60-10.60 444.40-10.60L444.40-10.60L444.40-10.60Q448.20-10.60 452.25-12.35L452.25-12.35L452.25-12.35Q456.30-14.10 458-16.90ZM437.60-27.80L437.60-27.80L437.60-27.80Q444.70-27.80 448.80-32.20L448.80-32.20L448.80-32.20Q452.90-36.40 452.90-43.10L452.90-43.10L452.90-43.10Q452.90-45.40 452.05-46.65L452.05-46.65L452.05-46.65Q451.20-47.90 449.50-47.90L449.50-47.90L449.50-47.90Q447.80-47.90 446.35-47.25L446.35-47.25L446.35-47.25Q444.90-46.60 443.40-44.40L443.40-44.40L443.40-44.40Q439.70-39.40 437.60-27.80ZM545.30-16.70L545.30-16.70Q538.70-7.60 532.35-2.80L532.35-2.80L532.35-2.80Q526 2 519.45 2L519.45 2L519.45 2Q512.90 2 510.60 0.70L510.60 0.70L510.60-21.30L510.60-21.30Q504.90-6.10 494.70-0.20L494.70-0.20L494.70-0.20Q491 2 487.50 2L487.50 2L487.50 2Q480.80 2 477.90 0.70L477.90 0.70L477.90 0.70Q477.20-22.20 476.60-28.55L476.60-28.55L476.60-28.55Q476-34.90 475.50-38.80L475.50-38.80L475.50-38.80Q474.50-46.60 471.10-49.80L471.10-49.80L471.10-49.80Q475.40-53 481.40-53L481.40-53L481.40-53Q493-53 494.60-38.60L494.60-38.60L494.60-38.60Q495-35.20 495-31.60L495-31.60L495-31.60Q495-26.20 493.80-7.40L493.80-7.40L493.80-7.40Q496.20-8.50 498.75-12.45L498.75-12.45L498.75-12.45Q501.30-16.40 503.40-21.80L503.40-21.80L503.40-21.80Q508.10-34.30 508.10-45.10L508.10-45.10L508.10-45.10Q508.10-46.80 507.65-48.60L507.65-48.60L507.65-48.60Q507.20-50.40 506.70-50.90L506.70-50.90L506.70-50.90Q510.20-53 515.55-53L515.55-53L515.55-53Q520.90-53 523.45-49.35L523.45-49.35L523.45-49.35Q526-45.70 526.70-39L526.70-39L526.70-39Q527.50-30.50 527.50-25.40L527.50-25.40L527.50-25.40Q527.50-18.30 526.80-7.80L526.80-7.80L526.80-7.80Q531.80-11.40 535.90-23.20L535.90-23.20L535.90-23.20Q540-35 540-43.40L540-43.40L540-43.40Q540-47.10 539.40-49.30L539.40-49.30L539.40-49.30Q542.70-53 548.40-53L548.40-53L548.40-53Q551.90-53 554.45-51.10L554.45-51.10L554.45-51.10Q557-49.20 557-45.65L557-45.65L557-45.65Q557-42.10 555.95-38.30L555.95-38.30L555.95-38.30Q554.90-34.50 553.20-30.60L553.20-30.60L553.20-30.60Q549.90-22.80 545.30-16.70L545.30-16.70Z" fill="url(#editing-gradow-gradient)"></path></g></g><style>text {
  font-size: 64px;
  font-family: Arial Black;
  dominant-baseline: central;
  text-anchor: middle;
}</style></svg>