<svg width="516.952490234375px" height="122.021240234375px" xmlns="http://www.w3.org/2000/svg" viewBox="-8.476245117187489 13.9893798828125 516.952490234375 122.021240234375" style="background: rgba(0, 0, 0, 0);" preserveAspectRatio="xMidYMid"><defs><linearGradient id="editing-gradow-gradient" x1="0" x2="1" y1="0.5" y2="0.5" gradientUnits="objectBoundingBox"><stop offset="0" stop-color="#f0f"></stop><stop offset="1" stop-color="#0ff"></stop></linearGradient><filter id="editing-gradow-filter" x="-100%" y="-100%" width="300%" height="300%"><feFlood flood-color="#fffcd9" result="flood"></feFlood><feComposite operator="in" in2="SourceAlpha" in="flood" result="shadow"></feComposite><feOffset dx="-4" dy="-4" in="SourceGraphic" result="offset-1"></feOffset><feOffset dx="4" dy="4" in="shadow" result="offset-2"></feOffset><feMerge><feMergeNode in="offset-2"></feMergeNode><feMergeNode in="offset-1"></feMergeNode></feMerge></filter></defs><g filter="url(#editing-gradow-filter)"><g transform="translate(67.7962396144867, 98.67218780517578)"><path d="M47.17 1.28L47.17 1.28L47.17 1.28Q39.42 1.28 39.42-4.74L39.42-4.74L39.42-4.74Q39.42-7.36 40.54-12.45L40.54-12.45L40.54-12.45Q41.66-17.54 42.05-19.58L42.05-19.58L42.05-19.58Q42.94-24.26 42.94-25.73L42.94-25.73L42.94-25.73Q42.94-28.99 40.51-28.99L40.51-28.99L40.51-28.99Q38.91-28.99 37.38-26.78L37.38-26.78L37.38-26.78Q35.84-24.58 35.14-20.16L35.14-20.16L31.17 0L18.69 1.28L22.14-16.13L22.14-16.13Q22.72-19.01 23.23-22.27L23.23-22.27L23.23-22.27Q23.74-25.54 23.74-26.05L23.74-26.05L23.74-26.05Q23.74-28.99 21.57-28.99L21.57-28.99L21.57-28.99Q20.10-28.99 18.50-26.82L18.50-26.82L18.50-26.82Q16.90-24.64 16-20.16L16-20.16L12.10 0L-0.51 1.28L6.21-32.64L16.64-33.92L15.55-27.46L15.55-27.46Q17.22-30.91 20.29-32.42L20.29-32.42L20.29-32.42Q23.36-33.92 28.16-33.92L28.16-33.92L28.16-33.92Q30.91-33.92 32.70-32.58L32.70-32.58L32.70-32.58Q34.50-31.23 35.07-29.06L35.07-29.06L35.07-29.06Q36.16-31.30 38.94-32.61L38.94-32.61L38.94-32.61Q41.73-33.92 45.15-33.92L45.15-33.92L45.15-33.92Q48.58-33.92 50.27-33.18L50.27-33.18L50.27-33.18Q51.97-32.45 52.99-31.23L52.99-31.23L52.99-31.23Q54.72-28.99 54.72-24.90L54.72-24.90L54.72-24.90Q54.72-20.86 52.99-12.48L52.99-12.48L52.99-12.48Q52.10-8.38 52.10-6.88L52.10-6.88L52.10-6.88Q52.10-5.38 52.96-4.48L52.96-4.48L52.96-4.48Q53.82-3.58 55.10-3.46L55.10-3.46L55.10-3.46Q54.46-1.28 52.26 0L52.26 0L52.26 0Q50.05 1.28 47.17 1.28ZM85.95-10.82L85.95-10.82L85.95-10.82Q87.55-9.73 87.55-7.33L87.55-7.33L87.55-7.33Q87.55-4.93 86.34-3.39L86.34-3.39L86.34-3.39Q85.12-1.86 83.14-0.83L83.14-0.83L83.14-0.83Q79.04 1.28 74.62 1.28L74.62 1.28L74.62 1.28Q70.21 1.28 67.62 0.32L67.62 0.32L67.62 0.32Q65.02-0.64 63.30-2.43L63.30-2.43L63.30-2.43Q59.90-5.82 59.90-12.03L59.90-12.03L59.90-12.03Q59.90-21.70 65.15-27.58L65.15-27.58L65.15-27.58Q70.78-33.92 80.58-33.92L80.58-33.92L80.58-33.92Q86.66-33.92 89.66-31.36L89.66-31.36L89.66-31.36Q91.90-29.44 91.90-26.30L91.90-26.30L91.90-26.30Q91.90-15.04 72.45-15.04L72.45-15.04L72.45-15.04Q72.19-13.38 72.19-11.97L72.19-11.97L72.19-11.97Q72.19-9.02 73.50-7.90L73.50-7.90L73.50-7.90Q74.82-6.78 77.25-6.78L77.25-6.78L77.25-6.78Q79.68-6.78 82.27-7.90L82.27-7.90L82.27-7.90Q84.86-9.02 85.95-10.82ZM72.90-17.79L72.90-17.79L72.90-17.79Q77.44-17.79 80.06-20.61L80.06-20.61L80.06-20.61Q82.69-23.30 82.69-27.58L82.69-27.58L82.69-27.58Q82.69-29.06 82.14-29.86L82.14-29.86L82.14-29.86Q81.60-30.66 80.51-30.66L80.51-30.66L80.51-30.66Q79.42-30.66 78.50-30.24L78.50-30.24L78.50-30.24Q77.57-29.82 76.61-28.42L76.61-28.42L76.61-28.42Q74.24-25.22 72.90-17.79ZM114.11-17.98L114.11-17.98L114.11-17.98Q116.42-22.08 116.42-26.24L116.42-26.24L116.42-26.24Q116.42-28.99 114.43-28.99L114.43-28.99L114.43-28.99Q112.90-28.99 111.30-26.37L111.30-26.37L111.30-26.37Q109.63-23.74 109.12-20.35L109.12-20.35L105.79 0L92.54 1.28L99.07-32.64L109.63-33.92L108.48-27.46L108.48-27.46Q111.62-33.92 118.66-33.92L118.66-33.92L118.66-33.92Q122.37-33.92 124.38-32L124.38-32L124.38-32Q126.40-30.08 126.40-26.14L126.40-26.14L126.40-26.14Q126.40-22.21 123.81-19.71L123.81-19.71L123.81-19.71Q121.22-17.22 116.80-17.22L116.80-17.22L116.80-17.22Q114.88-17.22 114.11-17.98ZM141.38 1.28L141.38 1.28L141.38 1.28Q127.30 1.28 127.30-11.97L127.30-11.97L127.30-11.97Q127.30-21.38 132.48-27.46L132.48-27.46L132.48-27.46Q137.98-33.92 147.52-33.92L147.52-33.92L147.52-33.92Q154.43-33.92 157.95-30.72L157.95-30.72L157.95-30.72Q161.47-27.52 161.47-20.80L161.47-20.80L161.47-20.80Q161.47-10.56 155.97-4.61L155.97-4.61L155.97-4.61Q150.59 1.28 141.38 1.28ZM143.04-26.56L143.04-26.56L143.04-26.56Q142.27-24.83 141.66-22.24L141.66-22.24L141.66-22.24Q141.06-19.65 140.29-15.55L140.29-15.55L140.29-15.55Q139.52-11.46 139.52-6.40L139.52-6.40L139.52-6.40Q139.52-4.74 140.06-3.65L140.06-3.65L140.06-3.65Q140.61-2.56 142.08-2.56L142.08-2.56L142.08-2.56Q143.55-2.56 144.48-3.26L144.48-3.26L144.48-3.26Q145.41-3.97 146.11-5.63L146.11-5.63L146.11-5.63Q147.39-8.58 148.42-14.05L148.42-14.05L148.42-14.05Q149.44-19.52 149.54-21.89L149.54-21.89L149.54-21.89Q149.63-24.26 149.63-26.02L149.63-26.02L149.63-26.02Q149.63-27.78 149.12-28.93L149.12-28.93L149.12-28.93Q148.61-30.08 147.17-30.08L147.17-30.08L147.17-30.08Q145.73-30.08 144.77-29.18L144.77-29.18L144.77-29.18Q143.81-28.29 143.04-26.56ZM184.38-22.46L184.38-22.46L184.38-22.46Q185.28-24.83 185.28-26.88L185.28-26.88L185.28-26.88Q185.28-30.66 182.21-30.66L182.21-30.66L182.21-30.66Q180.61-30.66 179.30-29.22L179.30-29.22L179.30-29.22Q177.98-27.78 177.98-25.98L177.98-25.98L177.98-25.98Q177.98-24.70 179.01-23.68L179.01-23.68L179.01-23.68Q180.48-22.27 184.26-19.97L184.26-19.97L184.26-19.97Q188.03-17.66 189.47-15.78L189.47-15.78L189.47-15.78Q190.91-13.89 190.91-11.30L190.91-11.30L190.91-11.30Q190.91-8.70 189.66-6.34L189.66-6.34L189.66-6.34Q188.42-3.97 186.18-2.30L186.18-2.30L186.18-2.30Q181.38 1.28 173.70 1.28L173.70 1.28L173.70 1.28Q169.54 1.28 166.34-0.90L166.34-0.90L166.34-0.90Q163.14-3.01 163.14-5.50L163.14-5.50L163.14-5.50Q163.14-8 164.96-9.47L164.96-9.47L164.96-9.47Q166.78-10.94 169.47-10.94L169.47-10.94L169.47-10.94Q172.16-10.94 173.82-9.92L173.82-9.92L173.82-9.92Q172.99-7.81 172.99-6.40L172.99-6.40L172.99-6.40Q172.99-2.18 176.58-2.18L176.58-2.18L176.58-2.18Q178.11-2.18 179.14-3.14L179.14-3.14L179.14-3.14Q180.16-4.10 180.16-5.76L180.16-5.76L180.16-5.76Q180.16-9.02 174.66-12.48L174.66-12.48L174.66-12.48Q170.18-15.42 169.15-16.58L169.15-16.58L169.15-16.58Q167.42-18.62 167.42-21.18L167.42-21.18L167.42-21.18Q167.42-23.74 168.64-26.18L168.64-26.18L168.64-26.18Q169.86-28.61 172.10-30.34L172.10-30.34L172.10-30.34Q176.77-33.92 184.90-33.92L184.90-33.92L184.90-33.92Q189.06-33.92 191.52-32.26L191.52-32.26L191.52-32.26Q193.98-30.59 193.98-27.78L193.98-27.78L193.98-27.78Q193.98-24.96 192.29-23.36L192.29-23.36L192.29-23.36Q190.59-21.76 187.52-21.76L187.52-21.76L187.52-21.76Q185.41-21.76 184.38-22.46ZM241.73-7.10L241.73-7.10L241.73-7.10Q241.73-4.29 244.61-3.46L244.61-3.46L244.61-3.46Q243.90-1.09 241.15 0.19L241.15 0.19L241.15 0.19Q238.85 1.28 236.32 1.28L236.32 1.28L236.32 1.28Q233.79 1.28 232.48 0.61L232.48 0.61L232.48 0.61Q231.17-0.06 230.46-1.15L230.46-1.15L230.46-1.15Q229.31-2.82 229.31-5.95L229.31-5.95L229.31-5.95Q229.31-7.81 230.34-12.93L230.34-12.93L231.23-17.79L231.23-17.79Q232.32-23.36 232.32-25.41L232.32-25.41L232.32-25.41Q232.32-28.99 230.34-28.99L230.34-28.99L230.34-28.99Q227.84-28.99 226.24-25.34L226.24-25.34L226.24-25.34Q225.60-23.94 225.15-21.82L225.15-21.82L220.80 0L207.94 1.28L216.96-44.80L229.82-46.08L229.31-43.52L229.31-43.52Q227.52-33.66 225.98-30.34L225.98-30.34L225.98-30.34Q229.57-33.92 236.16-33.92L236.16-33.92L236.16-33.92Q243.14-33.92 244.42-29.31L244.42-29.31L244.42-29.31Q244.86-27.84 244.86-26.56L244.86-26.56L244.86-26.56Q244.86-25.28 244.77-24.29L244.77-24.29L244.77-24.29Q244.67-23.30 244.35-21.50L244.35-21.50L243.52-16.90L242.05-9.66L242.05-9.66Q241.73-8.19 241.73-7.10ZM263.74 1.28L263.74 1.28L263.74 1.28Q249.66 1.28 249.66-11.97L249.66-11.97L249.66-11.97Q249.66-21.38 254.85-27.46L254.85-27.46L254.85-27.46Q260.35-33.92 269.89-33.92L269.89-33.92L269.89-33.92Q276.80-33.92 280.32-30.72L280.32-30.72L280.32-30.72Q283.84-27.52 283.84-20.80L283.84-20.80L283.84-20.80Q283.84-10.56 278.34-4.61L278.34-4.61L278.34-4.61Q272.96 1.28 263.74 1.28ZM265.41-26.56L265.41-26.56L265.41-26.56Q264.64-24.83 264.03-22.24L264.03-22.24L264.03-22.24Q263.42-19.65 262.66-15.55L262.66-15.55L262.66-15.55Q261.89-11.46 261.89-6.40L261.89-6.40L261.89-6.40Q261.89-4.74 262.43-3.65L262.43-3.65L262.43-3.65Q262.98-2.56 264.45-2.56L264.45-2.56L264.45-2.56Q265.92-2.56 266.85-3.26L266.85-3.26L266.85-3.26Q267.78-3.97 268.48-5.63L268.48-5.63L268.48-5.63Q269.76-8.58 270.78-14.05L270.78-14.05L270.78-14.05Q271.81-19.52 271.90-21.89L271.90-21.89L271.90-21.89Q272-24.26 272-26.02L272-26.02L272-26.02Q272-27.78 271.49-28.93L271.49-28.93L271.49-28.93Q270.98-30.08 269.54-30.08L269.54-30.08L269.54-30.08Q268.10-30.08 267.14-29.18L267.14-29.18L267.14-29.18Q266.18-28.29 265.41-26.56ZM288.64-6.40L288.64-6.40L288.64-6.40Q288.64-8.13 289.54-12.48L289.54-12.48L292.93-29.76L289.15-29.76L289.41-31.68L289.41-31.68Q297.09-33.98 304.51-39.62L304.51-39.62L307.58-39.62L306.05-32.64L311.04-32.64L310.46-29.76L305.54-29.76L302.27-12.48L302.27-12.48Q301.44-8.51 301.44-7.17L301.44-7.17L301.44-7.17Q301.44-4.10 304.13-3.46L304.13-3.46L304.13-3.46Q303.49-1.28 301.18 0L301.18 0L301.18 0Q298.88 1.28 295.62 1.28L295.62 1.28L295.62 1.28Q292.35 1.28 290.50-0.77L290.50-0.77L290.50-0.77Q288.64-2.82 288.64-6.40ZM336.38-10.82L336.38-10.82L336.38-10.82Q337.98-9.73 337.98-7.33L337.98-7.33L337.98-7.33Q337.98-4.93 336.77-3.39L336.77-3.39L336.77-3.39Q335.55-1.86 333.57-0.83L333.57-0.83L333.57-0.83Q329.47 1.28 325.06 1.28L325.06 1.28L325.06 1.28Q320.64 1.28 318.05 0.32L318.05 0.32L318.05 0.32Q315.46-0.64 313.73-2.43L313.73-2.43L313.73-2.43Q310.34-5.82 310.34-12.03L310.34-12.03L310.34-12.03Q310.34-21.70 315.58-27.58L315.58-27.58L315.58-27.58Q321.22-33.92 331.01-33.92L331.01-33.92L331.01-33.92Q337.09-33.92 340.10-31.36L340.10-31.36L340.10-31.36Q342.34-29.44 342.34-26.30L342.34-26.30L342.34-26.30Q342.34-15.04 322.88-15.04L322.88-15.04L322.88-15.04Q322.62-13.38 322.62-11.97L322.62-11.97L322.62-11.97Q322.62-9.02 323.94-7.90L323.94-7.90L323.94-7.90Q325.25-6.78 327.68-6.78L327.68-6.78L327.68-6.78Q330.11-6.78 332.70-7.90L332.70-7.90L332.70-7.90Q335.30-9.02 336.38-10.82ZM323.33-17.79L323.33-17.79L323.33-17.79Q327.87-17.79 330.50-20.61L330.50-20.61L330.50-20.61Q333.12-23.30 333.12-27.58L333.12-27.58L333.12-27.58Q333.12-29.06 332.58-29.86L332.58-29.86L332.58-29.86Q332.03-30.66 330.94-30.66L330.94-30.66L330.94-30.66Q329.86-30.66 328.93-30.24L328.93-30.24L328.93-30.24Q328.00-29.82 327.04-28.42L327.04-28.42L327.04-28.42Q324.67-25.22 323.33-17.79ZM359.81-3.52L359.81-3.52L359.81-3.52Q357.82 1.28 351.49 1.28L351.49 1.28L351.49 1.28Q348.29 1.28 346.24-0.96L346.24-0.96L346.24-0.96Q344.58-2.82 344.58-4.93L344.58-4.93L344.58-4.93Q344.58-9.73 346.82-20.22L346.82-20.22L351.49-44.80L364.48-46.08L358.27-13.70L358.27-13.70Q357.18-8.96 357.18-7.30L357.18-7.30L357.18-7.30Q357.18-3.65 359.81-3.52Z" fill="url(#editing-gradow-gradient)"></path></g></g><style>text {
  font-size: 64px;
  font-family: Arial Black;
  dominant-baseline: central;
  text-anchor: middle;
}</style></svg>