<?xml version="1.0" encoding="utf-8"?>
<!-- Generator: Adobe Illustrator 21.0.0, SVG Export Plug-In . SVG Version: 6.00 Build 0)  -->
<svg version="1.1" id="Layer_1" xmlns="http://www.w3.org/2000/svg" xmlns:xlink="http://www.w3.org/1999/xlink" x="0px" y="0px"
	 width="1371px" height="1353px" viewBox="0 0 1371 1353" style="enable-background:new 0 0 1371 1353;" xml:space="preserve">
<style type="text/css">
	.st0{fill:#FFFFFF;}
	.st1{fill:#E8D74E;}
	.st2{fill:#0101FF;}
</style>
<g>
	<rect class="st0" width="1371" height="1353"/>
	<path class="st1" d="M1235,1353H136.4c5.5-158,11.4-377.2,16.9-399c0.3-1.2,0.6-2.4,1-3.6c0.1-0.2,0.1-0.5,0.2-0.7
		c0.4-1.1,0.8-2.3,1.2-3.4c0.1-0.2,0.1-0.4,0.2-0.6c0.4-1,0.8-2,1.3-3.1c0.1-0.2,0.1-0.3,0.2-0.5c0.5-1.1,1-2.2,1.5-3.3
		c0.1-0.2,0.3-0.5,0.4-0.7c0.5-1.1,1.1-2.1,1.7-3.2c0.1-0.1,0.1-0.2,0.2-0.4c0.5-1,1.1-1.9,1.7-2.9c0.1-0.2,0.3-0.5,0.4-0.7
		c0.6-1,1.3-2,2-3c0.2-0.2,0.3-0.5,0.5-0.7c0.6-0.9,1.3-1.8,2-2.7c0.1-0.1,0.2-0.3,0.3-0.4c0.7-1,1.5-1.9,2.3-2.9
		c0.2-0.3,0.4-0.5,0.6-0.8c0.8-0.9,1.6-1.9,2.4-2.8c0.2-0.2,0.4-0.4,0.6-0.6c0.7-0.8,1.5-1.6,2.2-2.3c0.2-0.2,0.4-0.5,0.7-0.7
		c0.8-0.9,1.7-1.7,2.6-2.6c0.3-0.3,0.6-0.5,0.9-0.8c0.8-0.8,1.7-1.6,2.5-2.3c0.2-0.2,0.5-0.4,0.7-0.6c0.8-0.8,1.7-1.5,2.5-2.2
		c0.3-0.3,0.7-0.6,1-0.8c1-0.8,1.9-1.6,2.9-2.3c0.3-0.3,0.7-0.5,1-0.8c0.8-0.6,1.6-1.2,2.4-1.9c0.3-0.2,0.6-0.5,1-0.7
		c1-0.7,2-1.5,3-2.2c0.4-0.3,0.8-0.6,1.2-0.9c1-0.7,2-1.4,3-2c0.4-0.3,0.8-0.5,1.2-0.8c0.8-0.6,1.7-1.1,2.5-1.6
		c0.5-0.3,0.9-0.6,1.3-0.8c1.1-0.7,2.1-1.3,3.2-2l1.5-0.9c0.8-0.5,1.7-1,2.5-1.5c0.6-0.3,1.2-0.7,1.8-1c0.9-0.5,1.9-1.1,2.8-1.6
		c0.5-0.3,1.1-0.6,1.6-0.9c1.1-0.6,2.2-1.2,3.4-1.8c0.5-0.3,1.1-0.5,1.6-0.8c0.8-0.4,1.6-0.8,2.4-1.2c0.6-0.3,1.1-0.6,1.7-0.8
		c1.1-0.6,2.3-1.1,3.4-1.7c0.6-0.3,1.2-0.6,1.8-0.9c0.9-0.4,1.7-0.8,2.6-1.2c0.8-0.4,1.6-0.8,2.5-1.1c0.8-0.4,1.7-0.8,2.5-1.1
		c0.6-0.3,1.3-0.6,1.9-0.8c1.2-0.5,2.3-1,3.5-1.5c0.7-0.3,1.3-0.5,1.9-0.8c0.8-0.3,1.6-0.7,2.4-1c0.8-0.3,1.7-0.7,2.5-1
		c1-0.4,2-0.8,3-1.2c0.7-0.3,1.4-0.5,2.1-0.8c0.9-0.4,1.9-0.7,2.8-1.1c0.9-0.3,1.8-0.7,2.8-1c0.8-0.3,1.6-0.6,2.4-0.9
		c0.7-0.3,1.4-0.5,2.1-0.8c1.2-0.4,2.4-0.9,3.7-1.3c0.7-0.3,1.4-0.5,2.1-0.7c0.8-0.3,1.7-0.6,2.5-0.9c1-0.3,1.9-0.7,2.9-1
		c0.9-0.3,1.9-0.6,2.8-0.9c0.7-0.2,1.4-0.5,2.1-0.7c1.3-0.4,2.5-0.8,3.8-1.2c0.7-0.2,1.3-0.4,1.9-0.6c0.9-0.3,1.8-0.5,2.7-0.8
		c0.6-0.2,1.3-0.4,1.9-0.6c1.3-0.4,2.6-0.8,3.9-1.2c0.7-0.2,1.3-0.4,2-0.6c1-0.3,2.1-0.6,3.1-0.9c0.8-0.2,1.5-0.5,2.3-0.7
		c1-0.3,2.1-0.6,3.1-0.9c0.6-0.2,1.2-0.3,1.8-0.5c1.4-0.4,2.7-0.8,4-1.1c0.5-0.1,1.1-0.3,1.6-0.4c1.1-0.3,2.2-0.6,3.3-0.9
		c0.5-0.1,0.9-0.2,1.4-0.4c1.4-0.4,2.8-0.7,4.2-1.1c0.5-0.1,1-0.3,1.5-0.4c1.4-0.4,2.9-0.7,4.3-1.1c0.3-0.1,0.6-0.2,0.9-0.2
		c1.3-0.3,2.6-0.6,3.9-0.9c0.4-0.1,0.7-0.2,1.1-0.3c1.5-0.3,3-0.7,4.4-1c0.3-0.1,0.6-0.1,0.9-0.2c1.5-0.3,3.1-0.7,4.6-1l0,0
		c1.6-0.4,3.2-0.7,4.8-1.1c0.2-0.1,0.4-0.1,0.6-0.1c26.5-5.8,51-9.8,69.6-12.5s31.5-4.1,35-4.6c0.5-0.1,1-0.2,1.5-0.2
		c0,0,40.4-35.5,68.4-51.2v-131c-18.4-31.2-32.4-68.4-40-110.5c-12.1,8-21.1-9-30.2-42.2c-12.3-45.1-17.7-73.4-10.5-85.2
		c1.6-2.7,3.8-4.8,6.3-5.8c-3.4-28.5-4.5-62-1.2-100c7.8-90,43.7-142.8,88.8-173.2S640.5,83,685.1,83h0.1
		c89.3,0,217.2,31.5,232.8,211.5c3.3,38,2.2,71.5-1.2,100c2.5,1.1,4.7,3.1,6.3,5.8c7.2,11.8,1.8,40.1-10.5,85.2
		c-9,33.2-18.1,50.1-30.2,42.2c-7.6,42.1-21.6,79.3-40,110.5v130.6c28.1,15.8,68.4,51.2,68.4,51.2c0.5,0.1,1,0.2,1.5,0.2
		c6.9,1,51.5,5.6,104.6,17.1c0.2,0.1,0.4,0.1,0.6,0.1c1.6,0.3,3.2,0.7,4.8,1.1l0,0c1.5,0.3,3.1,0.7,4.6,1c0.3,0.1,0.6,0.2,0.9,0.2
		c1.5,0.3,3,0.7,4.4,1c0.4,0.1,0.7,0.2,1.1,0.3c1.3,0.3,2.6,0.6,3.9,0.9c0.3,0.1,0.6,0.1,0.9,0.2c1.4,0.3,2.9,0.7,4.3,1.1
		c0.5,0.1,1,0.3,1.5,0.4c1.4,0.4,2.8,0.7,4.2,1.1c0.4,0.1,0.9,0.2,1.4,0.4c1.1,0.3,2.2,0.6,3.3,0.9c0.5,0.1,1.1,0.3,1.6,0.4
		c1.3,0.4,2.7,0.7,4,1.1c0.6,0.2,1.2,0.3,1.8,0.5c1,0.3,2.1,0.6,3.1,0.9c0.8,0.2,1.5,0.4,2.3,0.7c1,0.3,2.1,0.6,3.1,0.9
		c0.7,0.2,1.3,0.4,2,0.6c1.3,0.4,2.6,0.8,3.9,1.2c0.6,0.2,1.3,0.4,1.9,0.6c0.9,0.3,1.8,0.6,2.7,0.8c0.7,0.2,1.3,0.4,1.9,0.6
		c1.3,0.4,2.5,0.8,3.8,1.2c0.7,0.2,1.4,0.4,2.1,0.7c0.9,0.3,1.9,0.6,2.8,0.9c0.9,0.3,1.9,0.7,2.9,1c0.8,0.3,1.7,0.6,2.5,0.9
		c0.7,0.2,1.4,0.5,2.1,0.7c1.2,0.4,2.4,0.9,3.6,1.3c0.7,0.3,1.4,0.5,2.1,0.8c0.8,0.3,1.6,0.6,2.4,0.9c0.9,0.3,1.8,0.7,2.8,1
		c0.9,0.4,1.9,0.7,2.8,1.1c0.7,0.3,1.4,0.5,2.1,0.8c1,0.4,2,0.8,3,1.2c0.8,0.3,1.7,0.7,2.5,1s1.6,0.7,2.4,1c0.6,0.3,1.3,0.5,1.9,0.8
		c1.2,0.5,2.3,1,3.5,1.5c0.6,0.3,1.3,0.6,1.9,0.8c0.8,0.4,1.7,0.8,2.5,1.1c0.9,0.4,1.7,0.8,2.5,1.1c0.9,0.4,1.7,0.8,2.6,1.2
		c0.6,0.3,1.2,0.6,1.8,0.9c1.2,0.5,2.3,1.1,3.4,1.7c0.6,0.3,1.1,0.6,1.7,0.8c0.8,0.4,1.6,0.8,2.4,1.2c0.5,0.3,1.1,0.5,1.6,0.8
		c1.1,0.6,2.3,1.2,3.4,1.8c0.5,0.3,1.1,0.6,1.6,0.9c1,0.5,1.9,1,2.8,1.6c0.6,0.3,1.2,0.7,1.8,1c0.8,0.5,1.7,1,2.5,1.5l1.5,0.9
		c1.1,0.7,2.1,1.3,3.2,2c0.4,0.3,0.9,0.6,1.3,0.8c0.8,0.5,1.7,1.1,2.5,1.6c0.4,0.3,0.8,0.5,1.2,0.8c1,0.7,2,1.4,3,2
		c0.4,0.3,0.8,0.6,1.2,0.9c1,0.7,2,1.5,3,2.2c0.3,0.2,0.6,0.5,1,0.7c0.8,0.6,1.6,1.2,2.4,1.9c0.3,0.3,0.7,0.5,1,0.8
		c1,0.8,1.9,1.6,2.9,2.3c0.3,0.3,0.7,0.6,1,0.8c0.9,0.7,1.7,1.5,2.5,2.2c0.2,0.2,0.5,0.4,0.7,0.6c0.9,0.8,1.7,1.6,2.5,2.3
		c0.3,0.3,0.6,0.5,0.9,0.8c0.9,0.8,1.8,1.7,2.6,2.6c0.2,0.2,0.5,0.5,0.7,0.7c0.7,0.8,1.5,1.5,2.2,2.3c0.2,0.2,0.4,0.4,0.6,0.6
		c0.8,0.9,1.6,1.8,2.4,2.8c0.2,0.3,0.4,0.5,0.7,0.8c0.8,0.9,1.6,1.9,2.3,2.9c0.1,0.1,0.2,0.3,0.3,0.4c0.7,0.9,1.3,1.8,2,2.7
		c0.2,0.2,0.3,0.5,0.5,0.7c0.7,1,1.4,2,2,3c0.2,0.2,0.3,0.5,0.4,0.7c0.6,1,1.2,1.9,1.7,2.9c0.1,0.1,0.1,0.2,0.2,0.4
		c0.6,1.1,1.2,2.1,1.7,3.2c0.1,0.3,0.3,0.5,0.4,0.7c0.5,1.1,1.1,2.2,1.5,3.3c0.1,0.2,0.1,0.3,0.2,0.5c0.4,1,0.8,2,1.3,3.1
		c0.1,0.2,0.1,0.4,0.2,0.6c0.4,1.1,0.8,2.2,1.2,3.4c0.1,0.2,0.2,0.5,0.2,0.7c0.4,1.2,0.7,2.4,1,3.6
		C1223.3,976.3,1229.4,1197.3,1235,1353z"/>
	<g>
		<path class="st2" d="M504.5,1017.1h27.2l33.1,59.5l32.3-59.5h27.4l5.9,126.7h-28.7L598,1061l-26.2,49.4H557l-27.7-48.8l-3.2,82.3
			h-27.4L504.5,1017.1z"/>
		<path class="st2" d="M747.9,1017.1v126.7h-28.7v-47.9c-3.7,1.8-7.7,3.2-12.2,4.2c-4.4,1-9,1.5-13.7,1.5c-5.7,0-11.2-0.9-16.5-2.6
			s-10-4.4-14.2-8c-4.1-3.6-7.4-8.3-9.9-14s-3.7-12.6-3.7-20.7V1017h28.7v36.3c0,8.4,2,14.4,6,18.1s9.6,5.6,16.8,5.6
			c3.7,0,7.2-0.4,10.5-1.2c3.4-0.8,6-1.8,8.1-2.9V1017h28.8V1017.1z"/>
		<path class="st2" d="M887,1120.4c-2.7,3.7-5.9,7.1-9.7,10.4c-3.8,3.2-8,6-12.6,8.5c-4.6,2.4-9.6,4.3-15,5.7
			c-5.4,1.4-11,2.1-16.8,2.1c-9.6,0-18.4-1.6-26.4-4.9s-14.9-7.9-20.6-13.8c-5.8-5.9-10.2-12.9-13.4-20.9s-4.8-16.9-4.8-26.5
			c0-9.4,1.6-18.1,4.8-26.3c3.2-8.2,7.6-15.3,13.4-21.3c5.8-6,12.7-10.8,20.7-14.3s16.9-5.2,26.7-5.2c11.8,0,22.1,2.2,30.9,6.5
			c8.8,4.3,16.1,10.5,21.9,18.6l-19.6,18.8c-3.8-5.3-8.3-9.6-13.5-12.8c-5.2-3.2-11.4-4.8-18.6-4.8c-5.7,0-10.8,1-15.4,3.1
			c-4.6,2.1-8.4,5-11.6,8.6c-3.2,3.7-5.6,8-7.3,12.8c-1.7,4.9-2.6,10-2.6,15.5c0,5.6,0.9,10.8,2.6,15.6c1.7,4.8,4.1,9,7.3,12.5
			s7,6.3,11.4,8.4c4.4,2,9.4,3,15,3c4.6,0,8.5-0.5,11.9-1.4c3.4-1,6.3-2.2,8.9-3.8c2.6-1.6,4.9-3.4,6.9-5.5s4-4.2,5.9-6.4
			L887,1120.4z"/>
	</g>
	<g>
		<path class="st2" d="M462.5,1210h9.2l13.4,36.7H476l-2.8-8.4h-12.9l-2.8,8.4h-8.7L462.5,1210z M471.2,1231.9l-4.5-13.9l-4.6,13.9
			H471.2z"/>
		<path class="st2" d="M523,1210v29.5h3.7v15.7h-7.4v-8.5H495v8.5h-7.2v-15.7h3.4c1.2-1.9,2.3-3.8,3.2-5.8c0.9-2,1.6-4.1,2.1-6.5
			c0.6-2.3,1-4.9,1.4-7.8c0.4-2.8,0.7-6,0.9-9.5H523V1210z M515.1,1217.2h-9.2c-0.2,2.6-0.5,4.9-0.8,7s-0.7,4-1.2,5.7
			c-0.5,1.8-1,3.4-1.6,5s-1.4,3.1-2.2,4.6h15.1L515.1,1217.2L515.1,1217.2z"/>
		<path class="st2" d="M532.5,1210h7.9l9.6,17.2l9.4-17.2h7.9l1.7,36.7h-8.3l-1-24L552,1237h-4.3l-8-14.1l-0.9,23.8h-7.9L532.5,1210
			z"/>
		<path class="st2" d="M607.5,1246.7h-8.2V1222l-16.3,24.7h-7.5V1210h8.2v24.3l15.9-24.3h7.9L607.5,1246.7L607.5,1246.7z"/>
		<path class="st2" d="M614.6,1210h8.3v14.1h15.9V1210h8.3v36.7h-8.3v-15.1h-15.9v15.1h-8.3V1210z"/>
		<path class="st2" d="M686.3,1246.7h-8.2V1222l-16.3,24.7h-7.5V1210h8.2v24.3l15.9-24.3h7.9L686.3,1246.7L686.3,1246.7z"/>
		<path class="st2" d="M726.5,1240c-0.8,1.1-1.7,2.1-2.8,3s-2.3,1.8-3.7,2.4c-1.3,0.7-2.8,1.2-4.3,1.7c-1.6,0.4-3.2,0.6-4.9,0.6
			c-2.8,0-5.3-0.5-7.6-1.4c-2.3-1-4.3-2.3-6-4s-3-3.7-3.9-6s-1.4-4.9-1.4-7.7c0-2.7,0.5-5.3,1.4-7.6c0.9-2.4,2.2-4.4,3.9-6.2
			c1.7-1.7,3.7-3.1,6-4.1s4.9-1.5,7.7-1.5c3.4,0,6.4,0.6,8.9,1.9c2.5,1.2,4.7,3,6.4,5.4l-5.7,5.4c-1.1-1.5-2.4-2.8-3.9-3.7
			c-1.5-0.9-3.3-1.4-5.4-1.4c-1.7,0-3.1,0.3-4.5,0.9c-1.3,0.6-2.4,1.4-3.4,2.5c-0.9,1.1-1.6,2.3-2.1,3.7c-0.5,1.4-0.7,2.9-0.7,4.5
			s0.2,3.1,0.7,4.5s1.2,2.6,2.1,3.6c0.9,1,2,1.8,3.3,2.4s2.7,0.9,4.3,0.9c1.3,0,2.5-0.1,3.4-0.4c1-0.3,1.8-0.6,2.6-1.1s1.4-1,2-1.6
			s1.2-1.2,1.7-1.8L726.5,1240z"/>
		<path class="st2" d="M741.7,1217.4h-11.9v-7.3h32.1v7.3H750v29.4h-8.4v-29.4H741.7z"/>
		<path class="st2" d="M766.8,1210h13.4c2.3,0,4.2,0.3,5.8,1s2.9,1.5,4,2.6c1,1.1,1.8,2.3,2.3,3.8c0.5,1.4,0.7,2.9,0.7,4.5
			c0,2-0.3,3.7-1,5.2s-1.6,2.7-2.8,3.7s-2.5,1.7-4,2.3c-1.5,0.5-3.1,0.8-4.7,0.8h-5.7v12.9h-8.1L766.8,1210L766.8,1210z
			 M779.7,1227.1c1.5,0,2.8-0.5,3.7-1.4s1.3-2.2,1.3-3.7s-0.5-2.8-1.4-3.8s-2.1-1.5-3.7-1.5h-4.8v10.3L779.7,1227.1L779.7,1227.1z"
			/>
		<path class="st2" d="M804.7,1210h9.2l13.4,36.7h-9.1l-2.8-8.4h-12.9l-2.8,8.4H791L804.7,1210z M813.5,1231.9L809,1218l-4.6,13.9
			H813.5z"/>
		<path class="st2" d="M836,1217.4h-11.9v-7.3h32.1v7.3h-11.8v29.4H836V1217.4z"/>
		<path class="st2" d="M876.6,1247.7c-2.7,0-5.2-0.5-7.6-1.5c-2.3-1-4.3-2.3-6.1-4.1c-1.7-1.7-3-3.8-4-6.1c-1-2.4-1.5-4.9-1.5-7.6
			c0-2.8,0.5-5.3,1.5-7.6c1-2.3,2.3-4.4,4-6.1s3.7-3.1,6.1-4.1c2.3-1,4.8-1.5,7.6-1.5c2.7,0,5.2,0.5,7.6,1.5c2.3,1,4.3,2.3,6,4.1
			c1.7,1.7,3,3.8,4,6.1c1,2.3,1.5,4.9,1.5,7.6s-0.5,5.3-1.5,7.6c-1,2.4-2.3,4.4-4,6.1s-3.7,3.1-6,4.1
			C881.9,1247.2,879.3,1247.7,876.6,1247.7z M876.6,1239.9c1.6,0,3.1-0.3,4.3-0.9c1.3-0.6,2.4-1.5,3.3-2.5c0.9-1.1,1.6-2.3,2.1-3.7
			c0.5-1.4,0.7-2.9,0.7-4.5s-0.2-3.1-0.7-4.5s-1.2-2.6-2.1-3.7c-0.9-1-2-1.9-3.3-2.5s-2.7-0.9-4.3-0.9s-3.1,0.3-4.4,0.9
			c-1.3,0.6-2.4,1.4-3.3,2.5c-0.9,1-1.6,2.3-2.1,3.7c-0.5,1.4-0.7,2.9-0.7,4.5s0.2,3.1,0.7,4.5s1.2,2.6,2.1,3.7
			c0.9,1.1,2,1.9,3.3,2.5C873.6,1239.5,875,1239.9,876.6,1239.9z"/>
		<path class="st2" d="M901.4,1210h13.4c2.3,0,4.2,0.3,5.8,1s2.9,1.5,4,2.6c1,1.1,1.8,2.3,2.3,3.8c0.5,1.4,0.7,2.9,0.7,4.5
			c0,2-0.3,3.7-1,5.2s-1.6,2.7-2.8,3.7s-2.5,1.7-4,2.3c-1.5,0.5-3.1,0.8-4.7,0.8h-5.7v12.9h-8.1L901.4,1210L901.4,1210z
			 M914.4,1227.1c1.5,0,2.8-0.5,3.7-1.4s1.3-2.2,1.3-3.7s-0.5-2.8-1.4-3.8s-2.1-1.5-3.7-1.5h-4.8v10.3L914.4,1227.1L914.4,1227.1z"
			/>
	</g>
</g>
</svg>
